<svg xmlns="http://www.w3.org/2000/svg" xmlns:xlink="http://www.w3.org/1999/xlink" width="20" height="20" viewBox="0 0 20 20">
    <defs>
        <path id="a" d="M19 18a1 1 0 0 1 0 2H1a1 1 0 0 1 0-2h18zm0-18a1 1 0 0 1 1 1v14a1 1 0 0 1-1 1H1a1 1 0 0 1-1-1V9a1 1 0 0 1 1-1h5V5a1 1 0 0 1 1-1h5V1a1 1 0 0 1 1-1h6zm-5 14h4V2h-4v12zm-6 0h4V6H8v8zm-6 0h4v-4H2v4z"/>
    </defs>
    <g fill="none" fill-rule="evenodd">
        <path fill="#FFF" d="M7 5h6v10H7z"/>
        <g>
            <mask id="b" fill="#fff">
                <use xlink:href="#a"/>
            </mask>
            <use fill="#919EAB" xlink:href="#a"/>
        </g>
    </g>
</svg>
