<svg xmlns="http://www.w3.org/2000/svg" xmlns:xlink="http://www.w3.org/1999/xlink" width="20" height="20" viewBox="0 0 20 20">
    <defs>
        <path id="a" d="M15 2h-2.586L10.707.293A.996.996 0 0 0 10 0H6a.996.996 0 0 0-.707.293L3.586 2H1a1 1 0 0 0-1 1v16a1 1 0 0 0 1 1h14a1 1 0 0 0 1-1V3a1 1 0 0 0-1-1zm-1 16H2V4h1.586l1.707 1.707A.996.996 0 0 0 6 6h4c.266 0 .52-.105.707-.293L12.414 4H14v14zM6.414 2h3.172l1 1-1 1H6.414l-1-1 1-1zM5 9a1 1 0 1 0 0 2 1 1 0 0 0 0-2m6 0H9a1 1 0 1 0 0 2h2a1 1 0 1 0 0-2m-6 4a1 1 0 1 0 0 2 1 1 0 0 0 0-2m6 0H9a1 1 0 1 0 0 2h2a1 1 0 1 0 0-2"/>
    </defs>
    <g fill="none" fill-rule="evenodd">
        <path fill="#FFF" d="M14 3l-2 2H8.001L6 3H3v16h14.001V3z"/>
        <g transform="translate(2)">
            <mask id="b" fill="#fff">
                <use xlink:href="#a"/>
            </mask>
            <use fill="#212b36" xlink:href="#a"/>
            <g fill="#212b36" mask="url(#b)">
                <path d="M-2 0h21v21H-2z"/>
            </g>
        </g>
    </g>
</svg>
