<svg xmlns="http://www.w3.org/2000/svg" xmlns:xlink="http://www.w3.org/1999/xlink" width="20" height="20" viewBox="0 0 20 20">
    <defs>
        <path id="a" d="M19.06 7.734l-.7-.7a1.217 1.217 0 0 1-.353-.851v-.991a3.206 3.206 0 0 0-3.203-3.202h-.99c-.32 0-.623-.125-.85-.353l-.7-.7a3.207 3.207 0 0 0-4.53 0l-.7.7c-.229.228-.53.353-.852.353h-.99A3.206 3.206 0 0 0 1.99 5.192v.99c0 .317-.129.628-.352.852l-.7.7a3.207 3.207 0 0 0 0 4.529l.7.7c.223.224.352.534.352.85v.992a3.206 3.206 0 0 0 3.203 3.202h.99c.321 0 .623.125.851.353l.7.7a3.192 3.192 0 0 0 2.265.936c.82 0 1.64-.312 2.265-.936l.7-.7c.228-.228.53-.353.851-.353h.99a3.206 3.206 0 0 0 3.203-3.202v-.991c0-.317.13-.627.352-.851l.702-.7a3.208 3.208 0 0 0 0-4.53M12.288 6.29l-6 6a.999.999 0 1 0 1.414 1.414l6-6A.999.999 0 1 0 12.29 6.29M7.496 8.996a1.5 1.5 0 1 0 0-3 1.5 1.5 0 0 0 0 3m5 2a1.5 1.5 0 1 0 .001 3.001 1.5 1.5 0 0 0 0-3m5.15-.148l-.702.7a3.181 3.181 0 0 0-.938 2.265v.99c0 .664-.539 1.203-1.203 1.203h-.99a3.18 3.18 0 0 0-2.265.939l-.7.7a1.205 1.205 0 0 1-1.702 0l-.7-.7a3.178 3.178 0 0 0-2.265-.94h-.99a1.203 1.203 0 0 1-1.203-1.201v-.991c0-.856-.333-1.66-.938-2.265l-.7-.7a1.203 1.203 0 0 1 0-1.701l.7-.7c.605-.605.938-1.41.938-2.265v-.991c0-.663.54-1.202 1.203-1.202h.99c.856 0 1.66-.333 2.265-.94l.7-.7a1.205 1.205 0 0 1 1.702 0l.7.7a3.18 3.18 0 0 0 2.265.94h.99c.664 0 1.203.539 1.203 1.202v.99c0 .856.333 1.66.938 2.266l.701.7a1.204 1.204 0 0 1 0 1.7"/>
    </defs>
    <g fill="none" fill-rule="evenodd">
        <path fill="#FFF" d="M8.442 18.355l-.7-.7a2.205 2.205 0 0 0-1.558-.646h-.991a2.202 2.202 0 0 1-2.202-2.202v-.991c0-.584-.233-1.145-.646-1.558l-.7-.7a2.203 2.203 0 0 1 0-3.115l.7-.7c.413-.413.646-.974.646-1.558v-.991c0-1.216.986-2.202 2.202-2.202h.991c.584 0 1.145-.233 1.558-.646l.7-.7c.86-.86 2.255-.86 3.115 0l.7.7c.414.413.974.646 1.558.646h.991c1.216 0 2.202.986 2.202 2.202v.991c0 .584.233 1.145.646 1.558l.7.7c.86.86.86 2.255 0 3.115l-.7.7a2.205 2.205 0 0 0-.646 1.558v.991a2.202 2.202 0 0 1-2.202 2.202h-.991c-.584 0-1.144.233-1.558.646l-.7.7c-.86.86-2.255.86-3.115 0"/>
        <g>
            <mask id="b" fill="#fff">
                <use xlink:href="#a"/>
            </mask>
            <use fill="#919EAB" xlink:href="#a"/>
        </g>
    </g>
</svg>
