<svg xmlns="http://www.w3.org/2000/svg"  width="20" height="20" viewBox="0 0 20 20">
  <path fill="currentColor" d="M7 13h6v6H7z"></path>
  <path d="M19.664 8.252c.413.368.45 1 .083 1.413-.197.222-.472.335-.747.335-.236 0-.474-.083-.664-.252l-.336-.3V19c0 .552-.447 1-1 1H3c-.553 0-1-.448-1-1V9.45l-.336.298c-.413.364-1.045.33-1.41-.083-.368-.414-.33-1.045.082-1.413L2 6.772V1c0-.552.447-1 1-1h4c.553 0 1 .448 1 1v.44L9.336.252c.38-.336.95-.336 1.328 0l9 8zM16 18V7.67L10 2.34 4 7.67V18h2v-5c0-.552.447-1 1-1h6c.553 0 1 .448 1 1v5h2zm-8 0h4v-4H8v4zM4 2v2.996l2-1.778V2H4z">
  </path>
</svg>