<svg xmlns="http://www.w3.org/2000/svg" xmlns:xlink="http://www.w3.org/1999/xlink" width="20" height="20" viewBox="0 0 20 20">
    <defs>
        <path id="a" d="M19 0h-9c-.265 0-.52.106-.707.293l-9 9a.999.999 0 0 0 0 1.414l9 9a.997.997 0 0 0 1.414 0l9-9A.997.997 0 0 0 20 10V1a1 1 0 0 0-1-1zm-9 17.586L2.414 10 4 8.414 11.586 16 10 17.586zm8-8l-5 5L5.414 7l5-5H18v7.586zM15 6a1 1 0 1 0 0-2 1 1 0 0 0 0 2"/>
    </defs>
    <g fill="none" fill-rule="evenodd">
        <path fill="#FFF" d="M4 7l-3 3 9 9 3-3z"/>
        <g>
            <mask id="b" fill="#fff">
                <use xlink:href="#a"/>
            </mask>
            <use fill="#919EAB" xlink:href="#a"/>
        </g>
    </g>
</svg>
