<svg xmlns="http://www.w3.org/2000/svg" xmlns:xlink="http://www.w3.org/1999/xlink" width="20" height="20" viewBox="0 0 20 20">
    <defs>
        <path id="a" d="M12 14c-.551 0-1-.449-1-1 0-.551.449-1 1-1 .551 0 1 .449 1 1 0 .551-.449 1-1 1zm-9 0c-.551 0-1-.449-1-1 0-.551.449-1 1-1 .551 0 1 .449 1 1 0 .551-.449 1-1 1zm0-8h2V4H3v2zm7.382-4l2 4H7V2h3.382zM9.184 12H5.816A2.996 2.996 0 0 0 3 10c-.353 0-.686.072-1 .184V8h11v2.184A2.962 2.962 0 0 0 12 10a2.996 2.996 0 0 0-2.816 2zM19 10h-2V1a1 1 0 0 0-2 0v6c0-.011-.006-.02-.006-.03-.002-.067-.024-.131-.04-.198-.016-.064-.024-.13-.051-.189-.005-.01-.004-.02-.008-.03l-3-6A1.001 1.001 0 0 0 11 0H6a1 1 0 0 0-1 1v1H2a1 1 0 0 0-1 1v3a1 1 0 0 0-1 1v6c0 1.654 1.346 3 3 3a2.996 2.996 0 0 0 2.816-2h3.369A2.993 2.993 0 0 0 12 16c1.654 0 3-1.346 3-3v-2a1 1 0 0 0 1 1h3a1 1 0 0 0 0-2z"/>
    </defs>
    <g fill-rule="evenodd">
        <path fill="#FFF" d="M6 9V3h5l3 6z"/>
        <g transform="translate(0 2)">
            <mask id="b" fill="#fff">
                <use xlink:href="#a"/>
            </mask>
            <use xlink:href="#a"/>
            <g mask="url(#b)">
                <path d="M0-2h21v21H0z"/>
            </g>
        </g>
    </g>
</svg>
